<svg width="640" height="420" viewBox="0 0 640 420" fill="none" xmlns="http://www.w3.org/2000/svg" role="img" aria-labelledby="title desc">
  <title id="title">AI summary preview</title>
  <desc id="desc">A card layout showing article metadata, summary length tabs, and highlighted points.</desc>
  <rect width="640" height="420" rx="32" fill="#F7F7F5"/>
  <rect x="52" y="48" width="536" height="324" rx="24" fill="white" stroke="#E7E5E4" stroke-width="2"/>
  <rect x="92" y="88" width="176" height="18" rx="9" fill="#047857"/>
  <rect x="92" y="124" width="356" height="18" rx="9" fill="#1C1917"/>
  <rect x="92" y="154" width="292" height="12" rx="6" fill="#A8A29E"/>
  <rect x="92" y="196" width="96" height="40" rx="12" fill="#047857"/>
  <rect x="204" y="196" width="96" height="40" rx="12" fill="#F5F5F4" stroke="#E7E5E4"/>
  <rect x="316" y="196" width="112" height="40" rx="12" fill="#F5F5F4" stroke="#E7E5E4"/>
  <rect x="92" y="268" width="430" height="12" rx="6" fill="#57534E"/>
  <rect x="92" y="294" width="386" height="12" rx="6" fill="#78716C"/>
  <rect x="92" y="320" width="304" height="12" rx="6" fill="#A8A29E"/>
  <circle cx="512" cy="108" r="36" fill="#ECFDF5"/>
  <path d="M493 110h38M512 91v38" stroke="#047857" stroke-width="8" stroke-linecap="round"/>
</svg>
